<?xml version="1.0" standalone="no"?><!DOCTYPE svg PUBLIC "-//W3C//DTD SVG 1.1//EN" "http://www.w3.org/Graphics/SVG/1.1/DTD/svg11.dtd"><svg t="1692606586545" class="icon" viewBox="0 0 1024 1024" version="1.1" xmlns="http://www.w3.org/2000/svg" p-id="5543" xmlns:xlink="http://www.w3.org/1999/xlink" width="200" height="200"><path d="M921.6 855.04c-5.12 0-10.24-5.12-10.24-5.12-25.6-15.36-51.2-35.84-97.28-35.84s-71.68 15.36-97.28 35.84c-15.36 10.24-30.72 20.48-56.32 20.48s-40.96-10.24-56.32-20.48c-25.6-15.36-51.2-35.84-97.28-35.84s-71.68 15.36-97.28 35.84c-15.36 10.24-25.6 20.48-51.2 20.48s-40.96-10.24-56.32-20.48c-25.6-15.36-51.2-35.84-97.28-35.84s-71.68 15.36-97.28 35.84c0 0-5.12 0-5.12 5.12l35.84 61.44c5.12 0 5.12-5.12 10.24-5.12 15.36-10.24 30.72-20.48 56.32-20.48s40.96 10.24 56.32 20.48c25.6 15.36 51.2 35.84 97.28 35.84s71.68-15.36 97.28-35.84c15.36-10.24 30.72-20.48 56.32-20.48s40.96 10.24 56.32 20.48c25.6 15.36 51.2 35.84 97.28 35.84s71.68-15.36 97.28-35.84c15.36-10.24 30.72-20.48 56.32-20.48s40.96 10.24 56.32 20.48c5.12 5.12 10.24 5.12 15.36 10.24l30.72-66.56zM476.16 245.76c0 40.96 35.84 71.68 76.8 71.68s76.8-30.72 76.8-71.68c0-40.96-40.96-56.32-71.68-153.6-30.72 76.8-81.92 112.64-81.92 153.6z m-312.32 5.12c0 40.96 30.72 71.68 66.56 71.68s66.56-30.72 66.56-71.68-35.84-56.32-66.56-153.6c-20.48 81.92-66.56 112.64-66.56 153.6z m128 225.28c0 56.32 46.08 102.4 107.52 102.4 56.32 0 107.52-46.08 107.52-102.4s-56.32-81.92-102.4-225.28c-40.96 117.76-112.64 168.96-112.64 225.28zM921.6 696.32c-5.12 0-10.24-5.12-10.24-5.12-25.6-15.36-51.2-35.84-97.28-35.84s-71.68 15.36-97.28 35.84c-15.36 10.24-30.72 20.48-56.32 20.48s-40.96-10.24-56.32-20.48c-25.6-15.36-51.2-35.84-97.28-35.84s-71.68 15.36-97.28 35.84c-15.36 10.24-30.72 20.48-56.32 20.48s-40.96-10.24-56.32-20.48c-25.6-15.36-51.2-35.84-97.28-35.84S128 670.72 102.4 691.2c0 0-5.12 0-5.12 5.12l35.84 61.44c5.12 0 5.12-5.12 10.24-5.12 15.36-10.24 30.72-20.48 56.32-20.48s40.96 10.24 56.32 20.48c25.6 15.36 51.2 35.84 97.28 35.84s71.68-15.36 97.28-35.84c15.36-10.24 30.72-20.48 56.32-20.48s40.96 10.24 56.32 20.48c25.6 15.36 51.2 35.84 97.28 35.84s71.68-15.36 97.28-35.84c15.36-10.24 30.72-20.48 56.32-20.48s40.96 10.24 56.32 20.48c5.12 5.12 10.24 5.12 15.36 10.24l35.84-66.56z" p-id="5544" data-spm-anchor-id="a313x.search_index.0.i0.14293a81PpVMun" class="selected" fill="#ffffff"></path></svg>