<?xml version="1.0" standalone="no"?><!DOCTYPE svg PUBLIC "-//W3C//DTD SVG 1.1//EN" "http://www.w3.org/Graphics/SVG/1.1/DTD/svg11.dtd"><svg t="1715673592414" class="icon" viewBox="0 0 1024 1024" version="1.1" xmlns="http://www.w3.org/2000/svg" p-id="6359" xmlns:xlink="http://www.w3.org/1999/xlink" width="200" height="200"><path d="M1022.16448 622.144l-138.304-449.728a62.976 62.976 0 0 0-61.312-44.288 64 64 0 0 0-63.104 42.688l-90.688 258.368h-313.6L264.46848 170.816a64 64 0 0 0-63.104-42.688 62.4 62.4 0 0 0-61.44 44.416L1.74848 622.272a45.184 45.184 0 0 0 17.152 49.344l467.968 335.232a27.648 27.648 0 0 0 13.184 9.472l10.944 7.744 10.816-7.744a29.888 29.888 0 0 0 15.104-10.816l467.84-334.016a44.8 44.8 0 0 0 17.408-49.344z m-205.952-435.2a4.992 4.992 0 0 1 4.416-2.304c1.408 0 3.2 0.384 4.288 3.648l75.456 242.368h-169.472z m-618.944 1.216c1.152-3.136 2.944-3.52 4.288-3.52 3.456 0 3.712 0 4.288 2.048L291.28448 430.72H123.79648zM63.31648 629.76l35.84-118.016 257.024 327.744z m93.824-141.184h155.072l115.2 344.832z m355.84 404.736L376.85248 488.576h272.128z m200.512-404.736h151.744l-267.072 340.608z m-51.712 356.48l263.232-335.616 37.44 120.32z" p-id="6360" fill="#f65e4a"></path></svg>